<svg xmlns="http://www.w3.org/2000/svg" width="512" height="512" viewBox="0 0 512 512" version="1.1">
	<path d="M 277.310 34.250 C 270.776 38.942, 241.589 64.264, 220.500 83.536 C 214.450 89.065, 203.200 99.181, 195.500 106.017 C 157.728 139.548, 125.600 169.938, 123.376 174.240 C 121.101 178.639, 122.319 183.084, 127.115 187.880 C 132.525 193.290, 139.791 196.655, 149.500 198.247 C 155.280 199.194, 157.500 199.966, 157.500 201.029 C 157.500 202.293, 152.189 202.537, 119.750 202.762 L 82 203.024 82 206.012 C 82 208.440, 82.422 209.003, 84.250 209.014 C 85.487 209.021, 87.459 209.285, 88.630 209.599 C 90.538 210.111, 90.655 210.514, 89.750 213.462 C 88.900 216.233, 89.156 217.661, 91.370 222.497 C 94.364 229.037, 94.779 235.594, 92.479 240.040 C 90.739 243.406, 86.111 246.004, 77.500 248.451 C 69.734 250.658, 67.154 252.388, 65.413 256.554 C 64.162 259.547, 64.188 260.461, 65.628 264.226 C 66.526 266.577, 67.471 270.637, 67.727 273.250 C 68.160 277.665, 68.389 278, 70.972 278 C 72.500 278, 75.156 278.281, 76.875 278.625 C 79.898 279.230, 80 279.421, 80 284.495 L 80 289.740 91.425 291.985 C 97.709 293.220, 104.182 295.041, 105.810 296.031 C 109.718 298.407, 113.528 306.512, 115.433 316.500 C 117.337 326.478, 123 382.607, 123 391.492 C 123 398.579, 121.401 403.599, 118.088 406.912 C 116.939 408.061, 116.004 410.237, 116.010 411.750 C 116.024 415.807, 120.322 424.326, 123.357 426.315 C 126.680 428.492, 126.736 431.288, 123.500 433.408 C 120.813 435.169, 120.264 437.864, 122.200 439.800 C 122.910 440.510, 126.328 441, 130.578 441 C 139.265 441, 140.958 439.754, 138.563 435.121 C 136.282 430.712, 136.598 429.435, 140.542 427.108 C 143.905 425.124, 148.965 416.747, 148.990 413.122 C 148.996 412.364, 147.546 409.214, 145.768 406.122 C 142.707 400.798, 142.543 399.997, 142.667 391 C 142.740 385.775, 143.729 373.175, 144.866 363 C 146.003 352.825, 147.427 339.100, 148.030 332.500 C 149.808 313.048, 152.594 305, 157.550 305 C 161.033 305, 190.882 310.830, 194.297 312.178 C 200.589 314.661, 201.868 321.368, 204.939 368 C 206.008 384.225, 207.021 401.775, 207.191 407 L 207.500 416.500 204.750 416.816 L 202 417.133 202 427.066 L 202 437 195.750 437.011 C 188.196 437.024, 182 437.961, 182 439.091 C 182 439.547, 183.837 440.470, 186.082 441.143 C 189.565 442.186, 190.631 442.121, 193.332 440.700 C 196.795 438.878, 210.764 436.431, 211.799 437.465 C 213.271 438.938, 204.913 441.985, 199.372 441.994 C 195.955 442.001, 189.508 444.369, 188.509 445.985 C 187.702 447.291, 200.227 447.368, 201.550 446.065 C 202.640 444.991, 216.573 441, 219.230 441 C 220.203 441, 221 441.585, 221 442.300 C 221 443.054, 217.854 444.525, 213.500 445.806 C 205.650 448.115, 204.580 449.170, 208.147 451.079 C 210.930 452.568, 216.524 450.962, 220.065 447.656 C 222.915 444.996, 230 443.569, 230 445.655 C 230 446.345, 228.425 447.205, 226.500 447.566 C 222.608 448.296, 222.577 448.341, 224.035 451.066 C 224.939 452.754, 226.178 452.997, 233.785 452.976 C 244.151 452.948, 249.968 451.765, 251.755 449.321 C 252.682 448.052, 252.981 444.501, 252.781 437.114 L 252.500 426.697 248.575 425.340 C 246.416 424.594, 244.500 423.834, 244.317 423.650 C 244.134 423.467, 245.514 419.983, 247.384 415.909 C 249.255 411.834, 252.964 401.765, 255.628 393.534 L 260.471 378.569 262.198 391.034 C 263.149 397.890, 264.235 410.765, 264.613 419.645 L 265.299 435.789 261.545 442.620 C 258.281 448.557, 257.869 450.027, 258.394 453.855 C 259.158 459.434, 262.158 464.317, 266.451 466.970 C 270.955 469.754, 271.374 471.402, 268.458 474.867 C 263.365 480.920, 265.662 484, 275.266 484 C 285.869 484, 288.156 481.775, 284 475.500 C 281.268 471.375, 281.465 470.362, 285.511 467.759 C 289.983 464.881, 294 457.088, 294 451.289 C 294 448.338, 293.050 445.286, 291 441.654 C 287.045 434.645, 286.889 425.864, 290.500 413.403 C 291.875 408.658, 293 403.457, 293 401.845 C 293 399.999, 294.439 396.986, 296.887 393.707 C 305.440 382.251, 307.911 373.581, 308.916 351.500 C 309.551 337.538, 309.781 336.223, 312.246 332.500 C 316.821 325.587, 319.104 323, 320.627 323 C 321.438 323, 322.767 321.409, 323.579 319.465 C 325.424 315.049, 328.086 314, 337.443 314 C 346.601 314, 347.355 313.259, 346.439 305.165 C 345.770 299.252, 345.800 299.155, 348.754 297.627 C 351.968 295.965, 353 296.318, 353 299.079 C 353 300.328, 354.107 301.011, 356.891 301.482 C 364.864 302.829, 366.744 308.041, 369.882 337.500 C 376.145 396.305, 376.187 399.355, 370.843 407.424 L 367.844 411.951 369.456 417.495 C 370.605 421.450, 372.204 424.109, 375.032 426.770 C 379.570 431.039, 379.887 432.882, 376.801 437.056 C 374.716 439.876, 374.691 440.120, 376.332 441.760 C 378.520 443.949, 390.803 444.232, 393.314 442.152 C 394.809 440.913, 394.782 440.492, 392.970 436.942 C 391.887 434.818, 391 432.559, 391 431.923 C 391 431.287, 392.775 429.043, 394.945 426.937 C 397.609 424.352, 399.398 421.397, 400.455 417.840 L 402.020 412.571 398.570 406.983 C 393.207 398.294, 393.188 397.373, 397.101 337 C 398.739 311.732, 401.283 302.306, 407.987 296.664 C 410.974 294.151, 416.622 292.017, 420.316 292.006 C 424.132 291.994, 426 290.075, 426 286.165 C 426 284.094, 425.460 281.860, 424.800 281.200 C 423.097 279.497, 424.527 278.498, 431.500 276.516 C 434.800 275.578, 438.063 274.348, 438.750 273.783 C 439.707 272.996, 440.001 264.509, 440.006 237.628 C 440.011 209.319, 440.287 201.974, 441.425 199.792 C 442.702 197.345, 442.664 197.028, 441.035 196.511 C 436.694 195.133, 420.473 193.972, 391.082 192.935 C 373.712 192.322, 358.315 191.378, 356.867 190.837 C 355.420 190.297, 353.087 188.650, 351.685 187.177 C 348.630 183.970, 342 173.136, 342 171.351 C 342 170.654, 344.137 168.887, 346.750 167.423 C 367.461 155.819, 406.854 125.183, 418.316 111.767 C 428.591 99.740, 430.626 90.133, 424.750 81.391 C 417.722 70.936, 403.497 62.381, 380.081 54.527 C 361.635 48.340, 362 48.644, 362 39.477 L 362 32 321.222 32 C 280.528 32, 280.437 32.005, 277.310 34.250 M 261.426 53.275 C 244.687 67.513, 220.714 88.663, 200.037 107.434 C 185.082 121.009, 178.892 127.175, 179.222 128.165 C 179.546 129.139, 203.695 108.180, 229.500 84.529 C 240.684 74.278, 262.612 55.322, 275.750 44.547 C 279.738 41.277, 283 38.241, 283 37.801 C 283 35.484, 278.806 38.492, 261.426 53.275 M 284.619 57.099 C 287.090 58.299, 289.387 60.380, 290.359 62.299 C 293.042 67.597, 319.514 139.685, 325.503 158 C 327.031 162.675, 329.823 169.584, 331.706 173.354 C 333.878 177.701, 335.614 183.188, 336.452 188.354 C 338.581 201.467, 345.027 216.306, 347.515 213.818 C 347.751 213.582, 345.404 207.176, 342.298 199.581 C 337.368 187.524, 336.856 185.660, 338.254 184.878 C 339.698 184.069, 339.619 183.119, 337.436 175.153 C 336.105 170.298, 332.271 159.839, 328.916 151.912 C 325.560 143.986, 320.201 130.975, 317.006 123 C 302.568 86.958, 290.692 59.315, 288.758 57.250 C 287.425 55.826, 285.522 55.018, 283.576 55.050 L 280.500 55.100 284.619 57.099 M 216.500 150.626 C 215.400 150.842, 212.025 151.511, 209 152.112 C 201.330 153.635, 182.401 159.787, 177 162.513 C 174.525 163.762, 171.624 165.753, 170.553 166.938 C 168.812 168.865, 168.722 169.642, 169.696 174.296 C 171.501 182.919, 168.999 192.944, 161.907 205.510 C 160.175 208.580, 159.025 211.358, 159.351 211.684 C 160.769 213.102, 281.239 216.094, 282.588 214.745 C 282.883 214.451, 283.278 210.225, 283.468 205.355 C 283.868 195.070, 286.152 187.727, 292.029 177.835 C 296.366 170.534, 296.762 168.533, 294.506 165.312 C 292.042 161.794, 270.091 154.270, 254.119 151.469 C 246.518 150.137, 221.799 149.582, 216.500 150.626 M 321 179.639 C 317.975 181.080, 310.361 184.113, 304.079 186.380 C 297.798 188.646, 292.473 191.063, 292.246 191.750 C 291.927 192.716, 295.312 192.977, 307.167 192.900 C 326.050 192.778, 327.231 192.497, 328.390 187.860 C 329.291 184.255, 328.498 176.992, 327.205 177.010 C 326.817 177.015, 324.025 178.198, 321 179.639 M 219.500 180 C 224.037 181.154, 229.214 181.154, 228.500 180 C 228.160 179.450, 225.321 179.053, 222.191 179.118 C 217.487 179.216, 217.021 179.369, 219.500 180 M 197 195.709 C 184.419 197.908, 167.934 203.919, 165.128 207.331 C 163.228 209.641, 164.165 209.477, 175.002 205.603 C 202.337 195.832, 228.323 196.953, 255.251 209.064 C 264.068 213.029, 267 213.780, 267 212.071 C 267 210.714, 253.404 202.494, 247 199.979 C 237.944 196.423, 227.925 194.989, 213.162 195.136 C 205.648 195.211, 198.375 195.469, 197 195.709 M 352.010 202.750 C 352.025 205.545, 356.879 215.207, 358.069 214.810 C 359.567 214.311, 359.429 213.793, 355.997 206.994 C 352.833 200.726, 351.993 199.832, 352.010 202.750 M 136 216.883 C 136 219.302, 138.594 219.969, 148.067 219.986 C 155.376 220, 213.677 222.969, 246.500 225.001 C 269.603 226.430, 269 226.470, 269 223.519 C 269 221.741, 268.363 220.916, 266.750 220.607 C 265.512 220.370, 243.479 219.421, 217.787 218.498 C 192.095 217.575, 166.670 216.427, 161.287 215.946 C 155.904 215.465, 148.012 215.055, 143.750 215.036 C 136.814 215.004, 136 215.198, 136 216.883 M 278.752 218.721 C 274.283 219.390, 273.501 227, 277.902 227 C 279.302 227, 279.958 226.210, 280.184 224.250 C 280.428 222.122, 281.291 221.230, 284 220.306 C 285.925 219.650, 286.749 219.087, 285.832 219.056 C 284.914 219.025, 283.564 218.845, 282.832 218.655 C 282.099 218.465, 280.264 218.495, 278.752 218.721 M 187.148 241.724 C 185.533 244.741, 187.550 247, 191.859 247 C 200.642 247, 201.423 240.772, 192.711 240.198 C 189.095 239.959, 187.919 240.282, 187.148 241.724 M 84.750 258.564 C 84.338 258.987, 84 260.351, 84 261.596 C 84 263.523, 84.778 264.016, 89.250 264.924 C 97.220 266.543, 130.454 271.580, 149 273.980 C 158.075 275.155, 177.650 277.909, 192.500 280.100 C 222.866 284.582, 247.590 288, 249.635 288 C 250.505 288, 251.006 286.822, 251.015 284.750 C 251.033 281.027, 251.692 279.787, 254.500 278.195 C 256.267 277.193, 256.035 277.036, 252.500 276.848 C 250.300 276.730, 247.262 276.718, 245.750 276.821 C 244.237 276.924, 243 276.584, 243 276.067 C 243 275.549, 241.429 275.381, 239.508 275.692 C 237.538 276.012, 235.429 275.771, 234.666 275.138 C 233.924 274.522, 233.049 274.284, 232.723 274.610 C 232.397 274.936, 228.988 274.673, 225.148 274.025 C 221.307 273.377, 216.665 272.679, 214.832 272.473 C 212.999 272.267, 210.150 271.833, 208.500 271.507 C 206.850 271.182, 204.639 270.912, 203.586 270.908 C 202.533 270.904, 198.722 270.282, 195.117 269.526 C 191.512 268.771, 188.258 268.340, 187.886 268.570 C 187.514 268.800, 184.928 268.555, 182.139 268.026 C 177.690 267.183, 165.475 265.504, 156.500 264.503 C 150.433 263.827, 143.388 262.981, 139.153 262.422 C 136.762 262.107, 133.162 261.685, 131.153 261.485 C 129.144 261.285, 124.350 260.607, 120.500 259.978 C 111.778 258.554, 85.763 257.525, 84.750 258.564 M 91.750 281.662 C 92.438 281.940, 93.563 281.940, 94.250 281.662 C 94.938 281.385, 94.375 281.158, 93 281.158 C 91.625 281.158, 91.063 281.385, 91.750 281.662 M 218.099 354.231 C 218.153 374.729, 218.501 393.975, 218.871 397 C 219.503 402.172, 219.648 401.634, 221.292 388 C 223.971 365.786, 225.857 321.825, 224.235 319.404 C 223.831 318.801, 222.262 318.005, 220.750 317.635 L 218 316.962 218.099 354.231 M 228.715 340.137 C 228.462 351.887, 227.558 368.025, 226.707 376 C 225.398 388.254, 223.551 411.931, 223.511 416.956 C 223.498 418.649, 231.965 421.435, 233.243 420.157 C 233.702 419.698, 233.556 409.463, 232.919 397.412 C 232.282 385.360, 231.702 363.260, 231.630 348.300 C 231.538 329.120, 231.157 320.757, 230.337 319.937 C 229.454 319.054, 229.064 323.904, 228.715 340.137 M 311.571 324.571 C 308.951 327.192, 309.816 328.522, 312.500 326 C 313.875 324.708, 315 323.505, 315 323.326 C 315 322.439, 312.963 323.179, 311.571 324.571 M 245.806 325.638 C 246.361 326.675, 247.804 328.417, 249.014 329.511 C 252.115 332.316, 255.178 338.563, 256.610 345 C 257.282 348.025, 257.870 349.344, 257.916 347.932 C 258.142 340.999, 252.783 329.777, 247.253 325.606 C 244.857 323.799, 244.823 323.800, 245.806 325.638 M 242 366.304 C 242 388.137, 242.241 406, 242.536 406 C 244.057 406, 258 366.467, 257.999 362.156 C 257.998 358.505, 253.201 341.306, 250.986 337.011 C 249.990 335.080, 247.561 331.949, 245.588 330.054 L 242 326.608 242 366.304 M 302.689 330.250 C 299.417 334.657, 298.081 339.036, 297.446 347.426 L 296.912 354.500 299.960 348.772 C 303.056 342.957, 307.427 327, 305.924 327 C 305.472 327, 304.016 328.462, 302.689 330.250 M 300.391 355.500 C 295.511 365.051, 295.250 365.967, 294.584 375.909 C 294.200 381.633, 293.657 387.708, 293.376 389.409 L 292.866 392.500 295.947 389.021 C 297.641 387.108, 299.945 383.090, 301.067 380.092 C 303.516 373.547, 306.212 356.440, 305.798 350.075 L 305.500 345.500 300.391 355.500" stroke="none" fill="black" fill-rule="evenodd"/>
</svg>